<svg xmlns="http://www.w3.org/2000/svg" width="256" height="256"><path fill-opacity=".016" d="M0 128.004v128.004l128.25-.254 128.25-.254.254-127.75L257.008 0H0v128.004m.485.496c0 70.4.119 99.053.265 63.672.146-35.38.146-92.98 0-128C.604 29.153.485 58.1.485 128.5" fill="#1976D2" fill-rule="evenodd"/><path fill-opacity=".115" d="M102 22.072a3776.4 3776.4 0 01-12.415 11.272c-4.353 3.936-8.853 8.115-10 9.287-1.147 1.172-4.56 4.276-7.585 6.898-3.025 2.622-8.443 7.513-12.04 10.869A2386.514 2386.514 0 0143.541 75.5c-5.433 4.95-10.823 9.9-11.978 11-1.155 1.1-5.892 5.375-10.525 9.5-11.677 10.395-17.041 15.839-17.023 17.276.034 2.732 2.104 4.141 7.161 4.875 15.833 2.297 18.99 2.834 19.865 3.374 1.245.77 1.234 14.02-.017 21.86-.537 3.363-1.439 10.84-2.005 16.615-.566 5.775-1.498 12.75-2.071 15.5-1.85 8.878-3.143 16.915-3.297 20.5l-.151 3.5 7.845.294c9.451.354 11.106-.576 10.215-5.738-2.338-13.552-4.207-22.731-5.508-27.049-1.133-3.763-1.27-29.996-.203-39.007.648-5.477.666-5.501 4.326-5.806 2.022-.168 7.065.394 11.208 1.25S60.96 125 63.458 125c5.101 0 5.051-.119 3.5 8.269-1.479 8.004.73 15.313 6.095 20.16 2.309 2.086 4.991 3.571 6.45 3.571H82v10.162c0 12.706 3.877 26.958 9.648 35.461 1.294 1.906 2.352 3.852 2.352 4.325 0 .859 4.086 5.825 9.237 11.225 5.184 5.435 13.435 11.579 17.345 12.915 2.155.736 5.112 2.143 6.572 3.126 1.46.982 3.62 1.786 4.8 1.786 1.18 0 3.585.747 5.346 1.661 4.543 2.357 30.763 2.323 35.2-.047 1.65-.881 3.9-1.606 5-1.612 1.1-.005 3.35-.832 5-1.837 1.65-1.004 4.186-2.123 5.635-2.486 2.934-.734 16.865-11.255 16.865-12.736 0-.519.689-.943 1.531-.943.843 0 1.793-.682 2.113-1.515.32-.833 1.862-2.885 3.426-4.56 3.018-3.231 7.663-11.256 9.828-16.978a288.919 288.919 0 012.12-5.447c.45-1.1 1.304-3.53 1.9-5.399 1.274-4.002 1.47-33.267.232-34.651-.467-.522-1.885-4.248-3.151-8.28-1.265-4.031-2.908-7.936-3.65-8.678-.742-.742-1.351-1.719-1.353-2.171-.003-.451-1.743-3.114-3.868-5.917-3.569-4.706-3.827-5.482-3.378-10.153.416-4.333-.009-6.036-2.973-11.904-4.332-8.574-7.696-14.564-8.871-15.797-.498-.522-.906-2.712-.906-4.865 0-3.176.644-4.508 3.411-7.05 37.251-34.24 37.722-34.714 37.383-37.616-.32-2.74 1.165-2.368-19.794-4.963-4.125-.511-12.9-1.644-19.5-2.518-17.263-2.286-28.927-3.592-37.5-4.201-4.125-.293-7.927-.939-8.45-1.435-.522-.496-3.027-.902-5.566-.902-2.539 0-7.062-.442-10.05-.981-2.989-.54-9.934-1.448-15.434-2.017-5.5-.57-11.35-1.264-13-1.541-2.48-.418-3.78.208-7.5 3.611" fill="#1976D2" fill-rule="evenodd"/><path fill-opacity=".356" d="M103.479 21.705c-1.662 1.537-8.412 7.745-15 13.795C81.89 41.55 76.275 46.725 76 47c-.275.275-5.45 5-11.5 10.5S53.275 67.74 53 68.033c-.275.292-4.775 4.385-10 9.093-5.225 4.709-11.525 10.434-14 12.721-2.475 2.287-8.13 7.42-12.566 11.406-13.514 12.14-14.277 14.652-4.831 15.887 9.104 1.191 18.891 3.155 20.005 4.014 1.412 1.089 1.037 24.718-.481 30.346-.594 2.2-1.09 6.581-1.103 9.736-.013 3.154-.522 7.879-1.131 10.5-.609 2.62-1.696 7.239-2.416 10.264-.719 3.025-1.596 8.025-1.947 11.11l-.639 5.611 3.446.559c4.625.75 11.379-.233 12.723-1.852 1.05-1.265.564-4.663-3.205-22.428-2.241-10.565-2.828-19.51-2.331-35.488.614-19.681-.105-18.593 11.476-17.363 4.125.438 10.8 1.095 14.834 1.46 4.034.366 7.529 1.174 7.768 1.796.238.621.046 3.968-.429 7.436-1.24 9.073.233 14.759 5.013 19.344 2.113 2.027 5.073 3.827 6.578 4l2.736.315.59 11c.324 6.05 1.268 13.546 2.097 16.657 1.714 6.432 9.311 22.128 12.313 25.439 7.151 7.886 9.692 10.419 14.701 14.654 3.09 2.613 6.307 4.75 7.149 4.75.843 0 1.81.45 2.15 1 .34.55 1.491 1 2.559 1s1.941.378 1.941.84c0 .462 1.912 1.427 4.25 2.144 2.338.717 6.178 1.914 8.535 2.66 2.607.825 8.872 1.35 16 1.341 12.308-.016 21.038-1.961 30.917-6.889 2.311-1.153 4.673-2.096 5.25-2.096.576 0 1.048-.438 1.048-.974s1.411-1.704 3.136-2.596c6.724-3.477 21.373-20.504 24.461-28.43l1.36-3.5c.426-1.1 1.256-3.125 1.844-4.5 3.958-9.263 4.121-38.111.246-43.5-.395-.55-1.51-3.588-2.476-6.75s-2.082-5.75-2.479-5.75c-.397 0-1.448-1.523-2.335-3.384-.887-1.86-2.996-4.958-4.686-6.883-2.939-3.346-3.008-3.625-1.578-6.366.822-1.577 1.491-3.542 1.486-4.367-.009-1.721-4.867-11.575-10.276-20.846-5.196-8.905-5.079-12.692.547-17.717C226.486 50.899 238 39.503 238 37.066c0-1.62-1.015-2.009-6.75-2.589-3.713-.376-11.025-1.351-16.25-2.167-5.225-.816-13.55-1.872-18.5-2.347-12.391-1.188-24.012-2.602-37-4.5-10.404-1.52-14.68-2.029-37.5-4.459-5.225-.556-10.85-1.255-12.5-1.553-2.348-.423-3.656.066-6.021 2.254" fill="#1976D2" fill-rule="evenodd"/><path fill-opacity=".65" d="M105.385 21.288c-.614.667-3.122 3.012-5.573 5.212-4.763 4.273-22.11 20.137-27.157 24.833-1.674 1.558-6.173 5.608-9.998 9-3.824 3.392-8.574 7.68-10.555 9.529a3297.845 3297.845 0 01-13.559 12.5C4.105 113.965 5.301 112.729 7.265 114.694c.833.832 4.826 1.953 8.874 2.489l11.361 1.509c2.2.293 4.45.854 5 1.247.55.393 4.6.783 9 .866 7.158.135 13.765.965 24.486 3.077l3.485.686.015 10.966c.012 9.711.268 11.322 2.232 14.076 2.311 3.239 7.804 6.511 9.705 5.781 1.189-.456 3.577-7.235 3.577-10.153 0-3.912 3.779-6.564 22.421-15.737 10.62-5.226 19.619-9.501 19.999-9.501.379 0 2.578-.855 4.885-1.901 6.532-2.96 19.446-7.729 27.695-10.228 5.974-1.81 9.84-2.266 19-2.239 13.173.037 17.635 1.296 24.479 6.904 4.217 3.456 4.423 3.516 5.456 1.585.774-1.445.754-2.792-.071-4.814-3.015-7.39-4.36-10.11-6.827-13.807C197.978 89.42 196 84.567 196 80.689c0-3.182.999-4.426 10.724-13.349 26.737-24.533 30.214-27.989 30.253-30.071.028-1.49-2.184-1.992-11.977-2.716-4.125-.306-10.2-1.008-13.5-1.562-3.3-.554-10.891-1.44-16.869-1.97-5.978-.529-11.716-1.231-12.752-1.559-2.48-.787-19.338-2.877-42.879-5.315-5.225-.541-14.675-1.692-21-2.557-6.325-.866-11.5-1.56-11.5-1.544 0 .017-.502.575-1.115 1.242M30.658 164.689c-.341 3.746-1.376 9.736-2.3 13.311-.924 3.575-1.72 9.65-1.769 13.5l-.089 7 5.804-.028c3.767-.018 6.096-.501 6.637-1.377.895-1.448.49-7.414-.889-13.095-.467-1.925-1.403-5.75-2.079-8.5-.676-2.75-1.645-7.475-2.153-10.5-1.34-7.976-2.455-8.086-3.162-.311" fill="#1976D2" fill-rule="evenodd"/></svg>